Coordinates
version=1
nRows=9
nColumns=63
inDegrees=yes

Units are S.I. units (second, meters, Newtons, ...)
If the header above contains a line with 'inDegrees', this indicates whether rotational values are in degrees (yes) or radians (no).

endheader
time	pelvis_tilt	pelvis_list	pelvis_rotation	pelvis_tx	pelvis_ty	pelvis_tz	hip_flexion_r	hip_adduction_r	hip_rotation_r	knee_angle_r	knee_angle_r_beta	ankle_angle_r	subtalar_angle_r	mtp_angle_r	hip_flexion_l	hip_adduction_l	hip_rotation_l	knee_angle_l	knee_angle_l_beta	ankle_angle_l	subtalar_angle_l	mtp_angle_l	L5_S1_Flex_Ext	L5_S1_Lat_Bending	L5_S1_axial_rotation	L4_L5_Flex_Ext	L4_L5_Lat_Bending	L4_L5_axial_rotation	L3_L4_Flex_Ext	L3_L4_Lat_Bending	L3_L4_axial_rotation	L2_L3_Flex_Ext	L2_L3_Lat_Bending	L2_L3_axial_rotation	L1_L2_Flex_Ext	L1_L2_Lat_Bending	L1_L2_axial_rotation	L1_T12_Flex_Ext	L1_T12_Lat_Bending	L1_T12_axial_rotation	Abs_r3	Abs_r2	Abs_r1	Abs_t1	Abs_t2	neck_flexion	neck_bending	neck_rotation	arm_flex_r	arm_add_r	arm_rot_r	elbow_flex_r	pro_sup_r	wrist_flex_r	wrist_dev_r	arm_flex_l	arm_add_l	arm_rot_l	elbow_flex_l	pro_sup_l	wrist_flex_l	wrist_dev_l
      0.00000000	      3.94908293	     -5.75423443	     71.22795940	     -0.07082416	      0.80809512	      0.63601387	      4.10024397	      1.70478766	     13.78372422	      9.50491080	      0.16589199	     27.36956100	     12.36933973	      0.00000000	     -3.07727723	     -2.08880021	    -11.22799988	      0.56382754	      0.00984065	     26.13727836	    -11.92736431	      0.00000000	     -0.11644003	      0.52342596	      1.04229866	     -0.21624078	      0.69615652	      1.10744233	     -0.19129932	      1.27265787	      1.10744233	     -0.13307931	      1.27265787	      0.91201133	     -0.10812621	      1.06737021	      0.84686766	     -0.06653383	      0.81078681	      0.78172400	     -0.83171949	      5.92109911	      5.79695247	      0.00000000	      0.00000000	     26.20905948	     -0.39187992	     10.36781354	     13.70261484	     -9.24462842	    113.74869190	     12.97535218	      4.88803120	     -3.32492417	     -7.29824791	     16.05261490	      0.44332027	    181.69187706	      1.52389353	      3.19921270	      1.66229556	    -11.72846114
      0.01666667	      3.35495451	     -5.33988143	     71.07205503	     -0.07218488	      0.80880286	      0.63508787	      3.78858350	      0.81440216	     14.00971319	      9.19849803	      0.16054408	     27.96489537	     12.88450094	      0.00000000	     -3.36610128	     -1.22367133	    -11.97732062	      0.53648421	      0.00936342	     25.02696372	    -11.68738502	      0.00000000	     -0.09800591	      0.44667004	      1.00301425	     -0.18200677	      0.59407115	      1.06570264	     -0.16101391	      1.08603353	      1.06570264	     -0.11201095	      1.08603353	      0.87763747	     -0.09100829	      0.91084954	      0.81494908	     -0.05600058	      0.69189189	      0.75226069	     -0.70004641	      5.05282081	      5.57846434	      0.00000000	      0.00000000	     25.67393617	     -1.61464908	      7.48480495	     14.28716165	     -8.82365782	    114.01401164	     13.31048286	      5.65839745	     -3.78464819	     -9.28045901	     16.15699475	      0.44020155	    157.45925104	      5.47879744	      2.20245777	      2.73847596	    -12.64467916
      0.03333333	      2.62144212	     -4.96641769	     71.20465476	     -0.07315625	      0.80943537	      0.63484884	      3.62173191	     -0.15855629	     13.72727072	      9.03225041	      0.15764251	     28.42590545	     13.48027608	      0.00000000	     -3.46408101	     -0.32729846	    -12.00214814	      0.54954626	      0.00959139	     24.06799681	    -11.67748170	      0.00000000	     -0.08646432	      0.35163448	      0.98167771	     -0.16057288	      0.46767386	      1.04303257	     -0.14205223	      0.85496407	      1.04303257	     -0.09882007	      0.85496407	      0.85896800	     -0.08029076	      0.71705303	      0.79761314	     -0.04940571	      0.54468181	      0.73625828	     -0.61760597	      3.97775955	      5.45979692	      0.00000000	      0.00000000	     25.12243036	     -1.87230576	      6.09419456	     14.81863955	     -8.00302325	    115.43497234	     13.03853093	      5.88509900	     -4.16165481	    -11.14790599	     16.84103035	     -1.11085666	    131.77728718	     12.44778873	      4.46441518	      0.20240889	    -12.56554969
      0.05000000	      1.78088701	     -4.76960241	     71.35989717	     -0.07328666	      0.80977137	      0.63495933	      3.68488862	     -1.08656578	     13.79859909	      8.94771950	      0.15616717	     28.73650845	     13.47699662	      0.00000000	     -3.33435928	      0.54088494	    -11.69611109	      0.55978200	      0.00977004	     23.32064034	    -11.80842400	      0.00000000	     -0.06957893	      0.24307020	      0.94579281	     -0.12921504	      0.32328337	      1.00490486	     -0.11431123	      0.59100089	      1.00490486	     -0.07952176	      0.59100089	      0.82756871	     -0.06461100	      0.49566875	      0.76845666	     -0.03975740	      0.37651574	      0.70934461	     -0.49699536	      2.74965873	      5.26021589	      0.00000000	      0.00000000	     24.99638587	     -1.80765331	      5.54007650	     15.38406792	     -6.10723944	    123.47292594	     10.64546259	      3.19379497	     -3.74054539	    -13.29064009	     16.17070803	     -3.16747449	    111.63932998	     17.55314431	     13.65178140	     -3.32700108	    -11.87443003
      0.06666667	      1.19590049	     -4.77145941	     71.67881737	     -0.07378301	      0.81011647	      0.63503815	      3.79507478	     -1.69661767	     13.93823286	      8.77931425	      0.15322794	     28.68870305	     13.06080771	      0.00000000	     -3.07395160	      1.08705709	    -10.96428918	      0.56484833	      0.00985846	     22.79507226	    -12.14754737	      0.00000000	     -0.04858270	      0.17761417	      0.89849525	     -0.09022292	      0.23622684	      0.95465120	     -0.07981651	      0.43185109	      0.95465120	     -0.05552516	      0.43185109	      0.78618334	     -0.04511389	      0.36219081	      0.73002739	     -0.02776015	      0.27512435	      0.67387143	     -0.34702133	      2.00920700	      4.99716101	      0.00000000	      0.00000000	     25.00534113	     -1.29287146	      6.21524586	     15.52418296	     -4.16118044	    133.24429759	      7.15233729	      1.71215421	     -3.92300449	    -14.91111920	     16.13318676	     -3.27630683	    108.46669077	     19.12377718	     14.84119920	     -4.75504083	    -12.57484148
      0.08333333	      0.79065556	     -4.87518439	     72.01340323	     -0.07419723	      0.81033165	      0.63536577	      3.96770623	     -2.07849538	     14.01719816	      8.66313515	      0.15120023	     28.51072324	     12.59095744	      0.00000000	     -2.76623087	      1.40731981	    -10.08553261	      0.56602234	      0.00987895	     22.50621529	    -12.54464238	      0.00000000	     -0.03068892	      0.13472776	      0.89130451	     -0.05699240	      0.17918792	      0.94701105	     -0.05041883	      0.32757708	      0.94701105	     -0.03507437	      0.32757708	      0.77989145	     -0.02849773	      0.27473685	      0.72418492	     -0.01753565	      0.20869330	      0.66847839	     -0.21920789	      1.52406737	      4.95716831	      0.00000000	      0.00000000	     25.12767773	     -0.70557153	      7.09348727	     15.27458807	     -2.47491409	    143.61124693	      3.20838357	      1.15009341	     -5.35803761	    -15.73305328	     16.41322503	     -3.13242259	    107.45888297	     20.26330294	     17.31867986	     -6.16523390	    -13.12162483
      0.10000000	      0.50237720	     -4.94784820	     72.41685024	     -0.07453361	      0.81053411	      0.63606204	      4.12192549	     -2.33375001	     13.90677831	      8.65246270	      0.15101396	     28.32406684	     12.17425079	      0.00000000	     -2.50373849	      1.60378532	     -9.33600505	      0.58208790	      0.01015935	     22.37205889	    -12.69018267	      0.00000000	     -0.02241527	      0.09770549	      0.85850186	     -0.04162740	      0.12994830	      0.91215823	     -0.03682605	      0.23756112	      0.91215823	     -0.02561841	      0.23756112	      0.75118913	     -0.02081482	      0.19924103	      0.69753276	     -0.01280809	      0.15134580	      0.64387640	     -0.16011003	      1.10526401	      4.77472982	      0.00000000	      0.00000000	     25.10981448	     -0.03509202	      7.89581850	     15.78202838	     -1.36136852	    147.52124155	      1.74154883	      1.05261868	     -6.44523596	    -16.32471694	     16.95916901	     -2.82442607	    108.70264718	     20.98432453	     20.41661586	     -7.65062330	    -13.59244436
      0.11666667	      0.29887167	     -5.05166752	     72.92406552	     -0.07465583	      0.81051815	      0.63680645	      4.21986375	     -2.46266145	     13.97636825	      8.57388421	      0.14964251	     28.09974742	     11.34174754	      0.00000000	     -2.25284600	      1.69736277	     -7.98572544	      0.59019910	      0.01030092	     22.12001938	    -13.71016697	      0.00000000	     -0.01039183	      0.06948441	      0.74867061	     -0.01929867	      0.09241426	      0.79546252	     -0.01707274	      0.16894439	      0.79546252	     -0.01187683	      0.16894439	      0.65508678	     -0.00964986	      0.14169260	      0.60829487	     -0.00593789	      0.10763135	      0.56150295	     -0.07422783	      0.78602150	      4.16388131	      0.00000000	      0.00000000	     25.03081167	      0.72006015	      9.06804287	     16.71965960	     -0.22735983	    150.14674179	      0.99652936	      0.92302585	     -7.20764484	    -16.85457141	     16.56865921	     -3.35674788	    102.52926533	     22.43234912	     32.32052112	     -9.25896524	    -11.95688025
      0.13333333	      0.17813124	     -5.13420092	     73.39933007	     -0.07467785	      0.81051338	      0.63784801	      4.39571031	     -2.53719721	     13.19961328	      8.73114118	      0.15238716	     28.11119085	     11.56847210	      0.00000000	     -2.04188753	      1.70892650	     -7.44283296	      0.62685322	      0.01094065	     22.17429120	    -13.70719683	      0.00000000	     -0.00061750	      0.04591866	      0.67895829	     -0.00114677	      0.06107182	      0.72139318	     -0.00101450	      0.11164664	      0.72139318	     -0.00070575	      0.11164664	      0.59408850	     -0.00057341	      0.09363734	      0.55165361	     -0.00035284	      0.07112801	      0.50921872	     -0.00441077	      0.51944112	      3.77616232	      0.00000000	      0.00000000	     24.79402285	      1.27739271	      9.70688855	     17.83663239	      0.80472477	    149.72444523	      0.83003391	      0.87071643	     -6.71514663	    -17.44665534	     16.55348545	     -3.49754110	     99.52676411	     23.33989704	     44.20414532	    -10.80283852	    -10.42812106
